<svg width="187" height="63" viewBox="0 0 187 63" fill="none" xmlns="http://www.w3.org/2000/svg">
<path d="M4.72656 15.5781V14.7578H12.9883C17.5456 14.7578 20.8594 15.7604 22.9297 17.7656C25 19.7578 26.0352 22.6484 26.0352 26.4375C26.0352 31.4115 23.8997 34.8034 19.6289 36.6133C17.4544 37.5247 14.8828 37.987 11.9141 38C6.36719 38 2.87109 36.5352 1.42578 33.6055C0.94401 32.6289 0.703125 31.5026 0.703125 30.2266C0.703125 27.401 1.9987 25.3177 4.58984 23.9766C5.42318 23.5469 6.35417 23.2214 7.38281 23V18.8594C7.38281 17.6745 7.28516 16.9062 7.08984 16.5547C6.89453 16.1901 6.49089 15.9427 5.87891 15.8125L4.72656 15.5781ZM16.2305 24.5039C16.2305 25.4023 15.7552 25.8581 14.8047 25.8711C14.3099 25.8711 13.8216 25.6172 13.3398 25.1094C12.8581 24.6016 12.474 24.263 12.1875 24.0938C11.8099 23.8594 11.0677 23.7943 9.96094 23.8984V36.75C10.2083 36.776 10.4948 36.7891 10.8203 36.7891H12.1289C14.9935 36.7891 17.3828 36.1315 19.2969 34.8164C21.849 33.0456 23.1315 30.2786 23.1445 26.5156C23.1445 21.4766 21.3021 18.2344 17.6172 16.7891C16.263 16.2682 14.7201 16.0078 12.9883 16.0078H9.96094V22.668C10.1432 22.6549 10.3776 22.6484 10.6641 22.6484C13.125 22.6484 14.7135 22.8438 15.4297 23.2344C15.9505 23.5208 16.2174 23.944 16.2305 24.5039ZM7.38281 24.4062C4.16667 25.4219 2.55208 27.3945 2.53906 30.3242C2.53906 32.8372 3.85417 34.6732 6.48438 35.832C7.14844 36.1185 7.87109 36.3464 8.65234 36.5156C8.2487 36.2943 7.82552 35.9297 7.38281 35.4219V24.4062ZM35.2344 21.8672C37.7344 21.8672 39.3034 22.8438 39.9414 24.7969C40.2279 25.6823 40.306 26.5482 40.1758 27.3945H30.8203C30.651 28.332 30.5664 29.2044 30.5664 30.0117C30.5664 32.7591 31.3867 34.6341 33.0273 35.6367C33.8997 36.1706 34.9479 36.4375 36.1719 36.4375C37.4479 36.4375 38.7305 35.9688 40.0195 35.0312L40.5859 35.6172L40.0391 36.2617C38.5547 37.8112 36.7969 38.5924 34.7656 38.6055C33.5547 38.6055 32.4349 38.2409 31.4062 37.5117C29.3359 36.0404 28.3008 33.8138 28.3008 30.832C28.3008 27.681 29.1797 25.2917 30.9375 23.6641C32.2656 22.5052 33.6979 21.9062 35.2344 21.8672ZM31.0156 26.125H37.6562C37.6562 25.0964 37.4219 24.3346 36.9531 23.8398C36.4844 23.332 35.8854 23.0781 35.1562 23.0781C34.0234 23.0781 33.099 23.4167 32.3828 24.0938C31.6667 24.7578 31.2109 25.4349 31.0156 26.125ZM41.4062 23.1953V22.2969H48.0469V23.1953C46.9401 23.1953 46.3477 23.4753 46.2695 24.0352C46.2305 24.3607 46.3542 24.9271 46.6406 25.7344L50 34.9531L53.7109 24.6211C53.9583 23.957 53.7044 23.5208 52.9492 23.3125C52.6758 23.2344 52.3698 23.1953 52.0312 23.1953V22.2969H57.4414V23.1953C56.569 23.2214 55.9635 23.4948 55.625 24.0156C55.4818 24.237 55.2474 24.7708 54.9219 25.6172L50.1172 38.2148H48.8867L44.2578 26.1836C43.7891 24.9596 43.3464 24.1589 42.9297 23.7812C42.526 23.3906 42.0182 23.1953 41.4062 23.1953ZM70.5859 20.5195C70.3906 17.4596 68.9323 15.9232 66.2109 15.9102C64.6094 15.9102 63.5091 16.3919 62.9102 17.3555C62.6367 17.7982 62.5 18.3581 62.5 19.0352C62.5 19.7904 62.9036 20.5326 63.7109 21.2617L64.3555 21.8281L68.7109 25.5195C71.3021 27.7721 72.6042 30.2461 72.6172 32.9414C72.6172 34.6732 71.8685 36.0599 70.3711 37.1016C68.8737 38.1302 67.168 38.6445 65.2539 38.6445C64.0299 38.6445 63.0664 38.4753 62.3633 38.1367C61.6602 37.7982 61.2044 37.5768 60.9961 37.4727C60.8008 37.3685 60.4297 37.1211 59.8828 36.7305L59.0625 36.1445V32.6484C59.0625 31.5026 59.4661 30.6367 60.2734 30.0508C61.0807 29.4518 62.0117 29.1523 63.0664 29.1523C64.1211 29.1523 65 29.3216 65.7031 29.6602C66.3932 30.0117 66.7448 30.4674 66.7578 31.0273V31.0664C66.7578 31.6133 66.4844 31.9714 65.9375 32.1406C65.8073 32.1797 65.6706 32.1992 65.5273 32.1992C65.0586 32.1992 64.7461 32.0104 64.5898 31.6328C64.4466 31.2552 64.3685 31.0534 64.3555 31.0273C64.0951 30.6628 63.5807 30.4805 62.8125 30.4805C61.7057 30.4805 61.0286 31.0078 60.7812 32.0625C60.7292 32.2708 60.7031 32.4661 60.7031 32.6484C60.7031 34.6146 61.4258 35.9688 62.8711 36.7109C63.5612 37.0625 64.3685 37.2383 65.293 37.2383C67.4154 37.2383 68.8607 36.5221 69.6289 35.0898C69.9414 34.5039 70.0977 33.8919 70.0977 33.2539C70.0977 32.1602 69.5898 30.9036 68.5742 29.4844C68.0664 28.7682 67.5391 28.1888 66.9922 27.7461L63.418 24.8555C61.8034 23.5273 60.8073 22.4661 60.4297 21.6719C60.0651 20.8646 59.8828 20.1224 59.8828 19.4453C59.8828 17.8828 60.5208 16.6784 61.7969 15.832C63.0729 14.9727 64.5768 14.543 66.3086 14.543C68.3008 14.543 70.1693 15.0833 71.9141 16.1641L71.8945 20.5195H70.5859ZM79.8047 38.1367V47.043C79.8047 48.1497 79.9284 48.8789 80.1758 49.2305C80.4362 49.582 81.0417 49.888 81.9922 50.1484L82.4805 50.2852V50.9883H75.0586V50.2656C76.1003 50.0833 76.7578 49.8099 77.0312 49.4453C77.3047 49.0807 77.4414 48.6315 77.4414 48.0977V26.2227C77.4414 25.3372 77.3958 24.7904 77.3047 24.582C77.1094 24.1263 76.3802 23.8984 75.1172 23.8984L75.0195 23.2344L79.8047 22.0234V23.3906C81.1458 22.4141 82.6628 21.9258 84.3555 21.9258C86.2174 21.9258 87.8125 22.6159 89.1406 23.9961C90.4688 25.3633 91.1328 27.3359 91.1328 29.9141C91.1328 32.4792 90.3841 34.543 88.8867 36.1055C87.2852 37.7852 85.4036 38.6315 83.2422 38.6445C82.1484 38.6445 81.0026 38.4753 79.8047 38.1367ZM79.8047 36.1836C80.7552 36.8216 81.8424 37.1406 83.0664 37.1406C84.4987 37.1406 85.8008 36.6393 86.9727 35.6367C88.1576 34.6211 88.75 32.9805 88.75 30.7148C88.75 28.6836 88.3594 27.1667 87.5781 26.1641C86.8099 25.1484 86.0482 24.4844 85.293 24.1719C84.5378 23.8464 83.7826 23.7031 83.0273 23.7422C81.9727 23.7943 80.9049 24.2044 79.8242 24.9727L79.8047 36.1836ZM107.52 36.3398C107.493 36.4049 107.396 36.5612 107.227 36.8086C107.07 37.056 106.862 37.3164 106.602 37.5898C106.354 37.8633 106.068 38.1042 105.742 38.3125C105.417 38.5339 105.078 38.6445 104.727 38.6445C104.219 38.6445 103.809 38.5273 103.496 38.293C103.184 38.0586 102.936 37.7656 102.754 37.4141C102.572 37.0625 102.441 36.6914 102.363 36.3008C102.285 35.8971 102.233 35.5391 102.207 35.2266C102.116 35.3047 101.947 35.526 101.699 35.8906C101.452 36.2552 101.12 36.6458 100.703 37.0625C100.286 37.4661 99.7721 37.8307 99.1602 38.1562C98.5612 38.4818 97.8646 38.6445 97.0703 38.6445C96.6797 38.6445 96.2695 38.5924 95.8398 38.4883C95.4232 38.3841 95.0456 38.2083 94.707 37.9609C94.3685 37.7005 94.0885 37.3555 93.8672 36.9258C93.6458 36.4831 93.5352 35.9362 93.5352 35.2852C93.5352 34.3607 93.8411 33.5924 94.4531 32.9805C95.0651 32.3685 95.8268 31.8867 96.7383 31.5352C97.6497 31.1836 98.4831 30.9297 99.2383 30.7734C100.007 30.6042 100.918 30.4154 101.973 30.207V26.9453C101.973 26.6589 101.96 26.3008 101.934 25.8711C101.921 25.4284 101.842 25.0052 101.699 24.6016C101.569 24.1849 101.348 23.8333 101.035 23.5469C100.736 23.2474 100.299 23.0977 99.7266 23.0977C99.0234 23.0977 98.444 23.2344 97.9883 23.5078C97.5456 23.7812 97.2201 24.0286 97.0117 24.25C96.8034 24.4714 96.5169 24.7969 96.1523 25.2266C95.7096 25.2786 95.3581 25.2721 95.0977 25.207C94.8503 25.1289 94.6419 25.0182 94.4727 24.875C94.3164 24.7188 94.2383 24.5104 94.2383 24.25C94.2383 23.8724 94.5247 23.5143 95.0977 23.1758C95.6706 22.8372 96.4128 22.5378 97.3242 22.2773C98.2487 22.0039 99.1211 21.8672 99.9414 21.8672C100.684 21.8672 101.309 21.9779 101.816 22.1992C102.324 22.4076 102.741 22.7005 103.066 23.0781C103.392 23.4427 103.639 23.8724 103.809 24.3672C103.978 24.849 104.095 25.3633 104.16 25.9102C104.238 26.457 104.277 27.0169 104.277 27.5898C104.29 28.1628 104.297 28.7161 104.297 29.25C104.297 30.2396 104.284 31.2031 104.258 32.1406C104.232 33.0781 104.238 33.918 104.277 34.6602C104.316 35.3893 104.414 35.9818 104.57 36.4375C104.74 36.8802 105.013 37.1016 105.391 37.1016C105.872 37.1016 106.361 36.6589 106.855 35.7734L107.52 36.3398ZM101.973 31.4961C100.918 31.6523 100.013 31.8281 99.2578 32.0234C98.5156 32.2188 97.9232 32.4661 97.4805 32.7656C97.0508 33.0651 96.7188 33.4036 96.4844 33.7812C96.263 34.1458 96.1523 34.5951 96.1523 35.1289C96.1523 36.431 96.7253 37.082 97.8711 37.082C98.2878 37.082 98.7174 36.9323 99.1602 36.6328C99.6029 36.3333 100.013 35.9753 100.391 35.5586C100.768 35.1289 101.1 34.6862 101.387 34.2305C101.673 33.7747 101.868 33.3971 101.973 33.0977V31.4961ZM119.102 24.8555L116.973 24.6016C115.905 24.6146 115.033 25.1549 114.355 26.2227C114.121 26.6133 114.004 27.2057 114.004 28V34.9531C114.004 35.9167 114.427 36.5612 115.273 36.8867C115.286 36.8997 115.521 36.9714 115.977 37.1016C116.432 37.2188 116.68 37.2839 116.719 37.2969V38H109.316V37.2969C109.355 37.2708 109.486 37.2318 109.707 37.1797C110.645 36.9583 111.243 36.6133 111.504 36.1445C111.634 35.8841 111.706 35.5977 111.719 35.2852V25.6758C111.719 25.0508 111.387 24.6732 110.723 24.543C110.527 24.5039 110.104 24.4714 109.453 24.4453L109.355 23.7617L114.16 21.9258L114.199 25.0117L114.883 24.2891C116.354 22.9219 117.793 22.2383 119.199 22.2383C120.033 22.2383 120.456 22.6419 120.469 23.4492C120.469 24.1003 120.202 24.5365 119.668 24.7578C119.486 24.8229 119.297 24.8555 119.102 24.8555ZM126.094 11.0664V28.4883L131.27 24.3672C131.855 23.8724 131.855 23.5469 131.27 23.3906L130.41 23.1562V22.3359H136.68V23.1367C135.625 23.293 134.551 23.7227 133.457 24.4258L128.32 28.1367L133.828 34.1523C134.974 35.3893 135.664 36.1185 135.898 36.3398C136.602 36.9648 137.266 37.2773 137.891 37.2773V38H131.113V37.2773C132.103 37.1602 132.572 36.8802 132.52 36.4375C132.493 36.2812 132.409 36.125 132.266 35.9688L126.094 29.0156V33.5664C126.094 34.7904 126.191 35.6172 126.387 36.0469C126.621 36.5547 127.383 36.9648 128.672 37.2773V38H121.309V37.2773C121.387 37.2513 121.667 37.1927 122.148 37.1016C123.229 36.8802 123.77 36.099 123.77 34.7578V15.0508C123.77 14.2565 123.717 13.7617 123.613 13.5664C123.392 13.1497 122.689 12.9414 121.504 12.9414L121.406 12.3164L126.094 11.0664Z" fill="white"/>
<path d="M0 1C252.793 3.73504 194.163 35.4729 133.249 51" stroke="white"/>
<path d="M139 53.1778L133.353 55.3111L134.294 61L129.857 56.8261L124.429 59.2609L127.392 53.8889L123 51.0444H128.647L130.843 45L132.714 51.0444L139 53.1778Z" stroke="white"/>
</svg>
