<svg width="188" height="64" viewBox="0 0 188 64" fill="none" xmlns="http://www.w3.org/2000/svg">
<path d="M5.72656 15.5781V14.7578H13.9883C18.5456 14.7578 21.8594 15.7604 23.9297 17.7656C26 19.7578 27.0352 22.6484 27.0352 26.4375C27.0352 31.4115 24.8997 34.8034 20.6289 36.6133C18.4544 37.5247 15.8828 37.987 12.9141 38C7.36719 38 3.87109 36.5352 2.42578 33.6055C1.94401 32.6289 1.70312 31.5026 1.70312 30.2266C1.70312 27.401 2.9987 25.3177 5.58984 23.9766C6.42318 23.5469 7.35417 23.2214 8.38281 23V18.8594C8.38281 17.6745 8.28516 16.9062 8.08984 16.5547C7.89453 16.1901 7.49089 15.9427 6.87891 15.8125L5.72656 15.5781ZM17.2305 24.5039C17.2305 25.4023 16.7552 25.8581 15.8047 25.8711C15.3099 25.8711 14.8216 25.6172 14.3398 25.1094C13.8581 24.6016 13.474 24.263 13.1875 24.0938C12.8099 23.8594 12.0677 23.7943 10.9609 23.8984V36.75C11.2083 36.776 11.4948 36.7891 11.8203 36.7891H13.1289C15.9935 36.7891 18.3828 36.1315 20.2969 34.8164C22.849 33.0456 24.1315 30.2786 24.1445 26.5156C24.1445 21.4766 22.3021 18.2344 18.6172 16.7891C17.263 16.2682 15.7201 16.0078 13.9883 16.0078H10.9609V22.668C11.1432 22.6549 11.3776 22.6484 11.6641 22.6484C14.125 22.6484 15.7135 22.8438 16.4297 23.2344C16.9505 23.5208 17.2174 23.944 17.2305 24.5039ZM8.38281 24.4062C5.16667 25.4219 3.55208 27.3945 3.53906 30.3242C3.53906 32.8372 4.85417 34.6732 7.48438 35.832C8.14844 36.1185 8.87109 36.3464 9.65234 36.5156C9.2487 36.2943 8.82552 35.9297 8.38281 35.4219V24.4062ZM36.2344 21.8672C38.7344 21.8672 40.3034 22.8438 40.9414 24.7969C41.2279 25.6823 41.306 26.5482 41.1758 27.3945H31.8203C31.651 28.332 31.5664 29.2044 31.5664 30.0117C31.5664 32.7591 32.3867 34.6341 34.0273 35.6367C34.8997 36.1706 35.9479 36.4375 37.1719 36.4375C38.4479 36.4375 39.7305 35.9688 41.0195 35.0312L41.5859 35.6172L41.0391 36.2617C39.5547 37.8112 37.7969 38.5924 35.7656 38.6055C34.5547 38.6055 33.4349 38.2409 32.4062 37.5117C30.3359 36.0404 29.3008 33.8138 29.3008 30.832C29.3008 27.681 30.1797 25.2917 31.9375 23.6641C33.2656 22.5052 34.6979 21.9062 36.2344 21.8672ZM32.0156 26.125H38.6562C38.6562 25.0964 38.4219 24.3346 37.9531 23.8398C37.4844 23.332 36.8854 23.0781 36.1562 23.0781C35.0234 23.0781 34.099 23.4167 33.3828 24.0938C32.6667 24.7578 32.2109 25.4349 32.0156 26.125ZM42.4062 23.1953V22.2969H49.0469V23.1953C47.9401 23.1953 47.3477 23.4753 47.2695 24.0352C47.2305 24.3607 47.3542 24.9271 47.6406 25.7344L51 34.9531L54.7109 24.6211C54.9583 23.957 54.7044 23.5208 53.9492 23.3125C53.6758 23.2344 53.3698 23.1953 53.0312 23.1953V22.2969H58.4414V23.1953C57.569 23.2214 56.9635 23.4948 56.625 24.0156C56.4818 24.237 56.2474 24.7708 55.9219 25.6172L51.1172 38.2148H49.8867L45.2578 26.1836C44.7891 24.9596 44.3464 24.1589 43.9297 23.7812C43.526 23.3906 43.0182 23.1953 42.4062 23.1953ZM71.5859 20.5195C71.3906 17.4596 69.9323 15.9232 67.2109 15.9102C65.6094 15.9102 64.5091 16.3919 63.9102 17.3555C63.6367 17.7982 63.5 18.3581 63.5 19.0352C63.5 19.7904 63.9036 20.5326 64.7109 21.2617L65.3555 21.8281L69.7109 25.5195C72.3021 27.7721 73.6042 30.2461 73.6172 32.9414C73.6172 34.6732 72.8685 36.0599 71.3711 37.1016C69.8737 38.1302 68.168 38.6445 66.2539 38.6445C65.0299 38.6445 64.0664 38.4753 63.3633 38.1367C62.6602 37.7982 62.2044 37.5768 61.9961 37.4727C61.8008 37.3685 61.4297 37.1211 60.8828 36.7305L60.0625 36.1445V32.6484C60.0625 31.5026 60.4661 30.6367 61.2734 30.0508C62.0807 29.4518 63.0117 29.1523 64.0664 29.1523C65.1211 29.1523 66 29.3216 66.7031 29.6602C67.3932 30.0117 67.7448 30.4674 67.7578 31.0273V31.0664C67.7578 31.6133 67.4844 31.9714 66.9375 32.1406C66.8073 32.1797 66.6706 32.1992 66.5273 32.1992C66.0586 32.1992 65.7461 32.0104 65.5898 31.6328C65.4466 31.2552 65.3685 31.0534 65.3555 31.0273C65.0951 30.6628 64.5807 30.4805 63.8125 30.4805C62.7057 30.4805 62.0286 31.0078 61.7812 32.0625C61.7292 32.2708 61.7031 32.4661 61.7031 32.6484C61.7031 34.6146 62.4258 35.9688 63.8711 36.7109C64.5612 37.0625 65.3685 37.2383 66.293 37.2383C68.4154 37.2383 69.8607 36.5221 70.6289 35.0898C70.9414 34.5039 71.0977 33.8919 71.0977 33.2539C71.0977 32.1602 70.5898 30.9036 69.5742 29.4844C69.0664 28.7682 68.5391 28.1888 67.9922 27.7461L64.418 24.8555C62.8034 23.5273 61.8073 22.4661 61.4297 21.6719C61.0651 20.8646 60.8828 20.1224 60.8828 19.4453C60.8828 17.8828 61.5208 16.6784 62.7969 15.832C64.0729 14.9727 65.5768 14.543 67.3086 14.543C69.3008 14.543 71.1693 15.0833 72.9141 16.1641L72.8945 20.5195H71.5859ZM80.8047 38.1367V47.043C80.8047 48.1497 80.9284 48.8789 81.1758 49.2305C81.4362 49.582 82.0417 49.888 82.9922 50.1484L83.4805 50.2852V50.9883H76.0586V50.2656C77.1003 50.0833 77.7578 49.8099 78.0312 49.4453C78.3047 49.0807 78.4414 48.6315 78.4414 48.0977V26.2227C78.4414 25.3372 78.3958 24.7904 78.3047 24.582C78.1094 24.1263 77.3802 23.8984 76.1172 23.8984L76.0195 23.2344L80.8047 22.0234V23.3906C82.1458 22.4141 83.6628 21.9258 85.3555 21.9258C87.2174 21.9258 88.8125 22.6159 90.1406 23.9961C91.4688 25.3633 92.1328 27.3359 92.1328 29.9141C92.1328 32.4792 91.3841 34.543 89.8867 36.1055C88.2852 37.7852 86.4036 38.6315 84.2422 38.6445C83.1484 38.6445 82.0026 38.4753 80.8047 38.1367ZM80.8047 36.1836C81.7552 36.8216 82.8424 37.1406 84.0664 37.1406C85.4987 37.1406 86.8008 36.6393 87.9727 35.6367C89.1576 34.6211 89.75 32.9805 89.75 30.7148C89.75 28.6836 89.3594 27.1667 88.5781 26.1641C87.8099 25.1484 87.0482 24.4844 86.293 24.1719C85.5378 23.8464 84.7826 23.7031 84.0273 23.7422C82.9727 23.7943 81.9049 24.2044 80.8242 24.9727L80.8047 36.1836ZM108.52 36.3398C108.493 36.4049 108.396 36.5612 108.227 36.8086C108.07 37.056 107.862 37.3164 107.602 37.5898C107.354 37.8633 107.068 38.1042 106.742 38.3125C106.417 38.5339 106.078 38.6445 105.727 38.6445C105.219 38.6445 104.809 38.5273 104.496 38.293C104.184 38.0586 103.936 37.7656 103.754 37.4141C103.572 37.0625 103.441 36.6914 103.363 36.3008C103.285 35.8971 103.233 35.5391 103.207 35.2266C103.116 35.3047 102.947 35.526 102.699 35.8906C102.452 36.2552 102.12 36.6458 101.703 37.0625C101.286 37.4661 100.772 37.8307 100.16 38.1562C99.5612 38.4818 98.8646 38.6445 98.0703 38.6445C97.6797 38.6445 97.2695 38.5924 96.8398 38.4883C96.4232 38.3841 96.0456 38.2083 95.707 37.9609C95.3685 37.7005 95.0885 37.3555 94.8672 36.9258C94.6458 36.4831 94.5352 35.9362 94.5352 35.2852C94.5352 34.3607 94.8411 33.5924 95.4531 32.9805C96.0651 32.3685 96.8268 31.8867 97.7383 31.5352C98.6497 31.1836 99.4831 30.9297 100.238 30.7734C101.007 30.6042 101.918 30.4154 102.973 30.207V26.9453C102.973 26.6589 102.96 26.3008 102.934 25.8711C102.921 25.4284 102.842 25.0052 102.699 24.6016C102.569 24.1849 102.348 23.8333 102.035 23.5469C101.736 23.2474 101.299 23.0977 100.727 23.0977C100.023 23.0977 99.444 23.2344 98.9883 23.5078C98.5456 23.7812 98.2201 24.0286 98.0117 24.25C97.8034 24.4714 97.5169 24.7969 97.1523 25.2266C96.7096 25.2786 96.3581 25.2721 96.0977 25.207C95.8503 25.1289 95.6419 25.0182 95.4727 24.875C95.3164 24.7188 95.2383 24.5104 95.2383 24.25C95.2383 23.8724 95.5247 23.5143 96.0977 23.1758C96.6706 22.8372 97.4128 22.5378 98.3242 22.2773C99.2487 22.0039 100.121 21.8672 100.941 21.8672C101.684 21.8672 102.309 21.9779 102.816 22.1992C103.324 22.4076 103.741 22.7005 104.066 23.0781C104.392 23.4427 104.639 23.8724 104.809 24.3672C104.978 24.849 105.095 25.3633 105.16 25.9102C105.238 26.457 105.277 27.0169 105.277 27.5898C105.29 28.1628 105.297 28.7161 105.297 29.25C105.297 30.2396 105.284 31.2031 105.258 32.1406C105.232 33.0781 105.238 33.918 105.277 34.6602C105.316 35.3893 105.414 35.9818 105.57 36.4375C105.74 36.8802 106.013 37.1016 106.391 37.1016C106.872 37.1016 107.361 36.6589 107.855 35.7734L108.52 36.3398ZM102.973 31.4961C101.918 31.6523 101.013 31.8281 100.258 32.0234C99.5156 32.2188 98.9232 32.4661 98.4805 32.7656C98.0508 33.0651 97.7188 33.4036 97.4844 33.7812C97.263 34.1458 97.1523 34.5951 97.1523 35.1289C97.1523 36.431 97.7253 37.082 98.8711 37.082C99.2878 37.082 99.7174 36.9323 100.16 36.6328C100.603 36.3333 101.013 35.9753 101.391 35.5586C101.768 35.1289 102.1 34.6862 102.387 34.2305C102.673 33.7747 102.868 33.3971 102.973 33.0977V31.4961ZM120.102 24.8555L117.973 24.6016C116.905 24.6146 116.033 25.1549 115.355 26.2227C115.121 26.6133 115.004 27.2057 115.004 28V34.9531C115.004 35.9167 115.427 36.5612 116.273 36.8867C116.286 36.8997 116.521 36.9714 116.977 37.1016C117.432 37.2188 117.68 37.2839 117.719 37.2969V38H110.316V37.2969C110.355 37.2708 110.486 37.2318 110.707 37.1797C111.645 36.9583 112.243 36.6133 112.504 36.1445C112.634 35.8841 112.706 35.5977 112.719 35.2852V25.6758C112.719 25.0508 112.387 24.6732 111.723 24.543C111.527 24.5039 111.104 24.4714 110.453 24.4453L110.355 23.7617L115.16 21.9258L115.199 25.0117L115.883 24.2891C117.354 22.9219 118.793 22.2383 120.199 22.2383C121.033 22.2383 121.456 22.6419 121.469 23.4492C121.469 24.1003 121.202 24.5365 120.668 24.7578C120.486 24.8229 120.297 24.8555 120.102 24.8555ZM127.094 11.0664V28.4883L132.27 24.3672C132.855 23.8724 132.855 23.5469 132.27 23.3906L131.41 23.1562V22.3359H137.68V23.1367C136.625 23.293 135.551 23.7227 134.457 24.4258L129.32 28.1367L134.828 34.1523C135.974 35.3893 136.664 36.1185 136.898 36.3398C137.602 36.9648 138.266 37.2773 138.891 37.2773V38H132.113V37.2773C133.103 37.1602 133.572 36.8802 133.52 36.4375C133.493 36.2812 133.409 36.125 133.266 35.9688L127.094 29.0156V33.5664C127.094 34.7904 127.191 35.6172 127.387 36.0469C127.621 36.5547 128.383 36.9648 129.672 37.2773V38H122.309V37.2773C122.387 37.2513 122.667 37.1927 123.148 37.1016C124.229 36.8802 124.77 36.099 124.77 34.7578V15.0508C124.77 14.2565 124.717 13.7617 124.613 13.5664C124.392 13.1497 123.689 12.9414 122.504 12.9414L122.406 12.3164L127.094 11.0664Z" fill="white"/>
<path d="M1 1C253.793 3.73504 195.163 35.4729 134.249 51" stroke="white" stroke-width="2"/>
<path d="M140 53.1778L134.353 55.3111L135.294 61L130.857 56.8261L125.429 59.2609L128.392 53.8889L124 51.0444H129.647L131.843 45L133.714 51.0444L140 53.1778Z" stroke="white" stroke-width="2"/>
</svg>
